<svg width="70" height="70" viewBox="0 0 70 70" fill="none" xmlns="http://www.w3.org/2000/svg">
<rect width="70" height="70" rx="20" fill="url(#paint0_radial_10787_47037)"/>
<g clip-path="url(#clip0_10787_47037)">
<path d="M31.4683 28.7684C32.1016 28.9917 32.7541 28.6607 32.9709 28.068C33.1898 27.4628 32.8839 26.7897 32.2705 26.5654C31.6442 26.3422 30.9863 26.6684 30.7679 27.2658C30.5489 27.8711 30.8549 28.544 31.4683 28.7684Z" fill="white"/>
<path d="M35.6295 32.2108C39.651 32.102 43.6014 30.6647 46.7543 28.1629C47.1574 27.8436 47.6335 27.6581 48.1275 27.5388L48.5899 26.269C48.7627 25.7952 48.6128 25.2642 48.2168 24.9506C44.2766 21.824 39.3362 20.0262 34.3065 19.8877C29.9075 19.7676 25.7257 18.2269 22.2125 15.5822L21.7868 15.2526C21.4926 15.0202 21.1047 14.9424 20.7407 15.0443C20.3779 15.1472 20.0873 15.4173 19.9591 15.771L15.071 29.0636C14.8982 29.5373 15.0481 30.0683 15.4429 30.3819C18.2078 32.5754 21.5451 34.0974 24.9778 34.8692C28.2877 33.2464 31.9325 32.3124 35.6295 32.2108ZM37.3753 29.6705C37.5967 29.0622 38.2692 28.7487 38.8773 28.97C39.4856 29.1914 39.7991 29.8639 39.5777 30.472C39.3564 31.0803 38.6839 31.3938 38.0757 31.1724C37.4675 30.9511 37.1539 30.2786 37.3753 29.6705ZM28.5662 26.4647C29.2288 24.6439 31.2533 23.7009 33.0718 24.3635C34.8936 25.0261 35.8367 27.0483 35.1729 28.869C34.511 30.6897 32.4875 31.6349 30.6674 30.9702C28.8439 30.3056 27.8994 28.2941 28.5662 26.4647ZM24.1609 24.8609C24.3822 24.2526 25.0546 23.9391 25.6629 24.1605C26.2711 24.3819 26.5846 25.0543 26.3633 25.6624C26.1419 26.2707 25.4694 26.5842 24.8613 26.3628C24.2531 26.1415 23.9395 25.469 24.1609 24.8609Z" fill="white"/>
<path d="M26.2197 54.2283C26.3479 54.5831 26.6397 54.8532 27.0014 54.955C27.3739 55.0604 27.761 54.9747 28.0497 54.7456C31.5962 51.9315 36.0422 50.2352 40.5672 50.1116C45.5969 49.9732 50.6154 48.1753 54.5568 45.0487C54.9516 44.7351 55.1015 44.2041 54.9287 43.7304L50.0407 30.5159C49.9125 30.1611 49.6207 29.8911 49.259 29.7892C48.8951 29.6862 48.5072 29.764 48.2108 29.9986C44.6642 32.8128 40.2182 34.4309 35.6932 34.5534C30.6647 34.6918 25.7242 36.4897 21.7829 39.6174C21.3869 39.931 21.237 40.462 21.4098 40.9357L26.2197 54.2283ZM44.3368 38.8267C44.9451 38.6054 45.6175 38.919 45.8388 39.5271C46.0602 40.1354 45.7467 40.8078 45.1384 41.0291C44.5303 41.2504 43.8578 40.9368 43.6364 40.3287C43.4151 39.7204 43.7286 39.0481 44.3368 38.8267ZM36.928 39.0291C38.7499 38.3665 40.7721 39.3095 41.4336 41.1303C42.0973 42.9511 41.1543 44.9732 39.3324 45.6358C37.5171 46.2973 35.4962 45.3712 34.8268 43.5347C34.1631 41.7139 35.1061 39.6917 36.928 39.0291ZM31.1224 43.6364C31.7305 43.415 32.403 43.7286 32.6244 44.3368C32.8458 44.945 32.5322 45.6175 31.924 45.8388C31.3158 46.0601 30.6433 45.7465 30.422 45.1384C30.2006 44.5301 30.5142 43.8576 31.1224 43.6364Z" fill="white"/>
<path d="M38.5312 43.4339C39.1454 43.2093 39.4504 42.5359 39.2316 41.9313C39.0132 41.3342 38.3556 41.0075 37.729 41.2309C37.1149 41.4556 36.8099 42.1289 37.0286 42.7335C37.2489 43.3358 37.9154 43.6582 38.5312 43.4339Z" fill="white"/>
</g>
<defs>
<radialGradient id="paint0_radial_10787_47037" cx="0" cy="0" r="1" gradientUnits="userSpaceOnUse" gradientTransform="translate(70 70) rotate(-180) scale(70)">
<stop stop-color="#3894EF"/>
<stop offset="1" stop-color="#8AC5FF"/>
</radialGradient>
<clipPath id="clip0_10787_47037">
<rect width="40" height="40" fill="white" transform="translate(15 15)"/>
</clipPath>
</defs>
</svg>
